<svg xmlns="http://www.w3.org/2000/svg" height="800" width="1200" overflow="visible" version="1.0" viewBox="-35.06895 -10.251275 303.9309 61.50765"><path d="M230.116 33.9258c.935.038 1.649.829 1.61 1.763-.039.95-.814 1.672-1.756 1.635-.934-.039-1.664-.823-1.626-1.772.039-.934.831-1.664 1.765-1.626m-.021.338c-.708-.029-1.306.559-1.336 1.312-.031.761.516 1.379 1.232 1.408.715.036 1.319-.543 1.351-1.303.03-.754-.524-1.388-1.239-1.416zm-.383 2.331l-.398-.017.077-1.884c.151-.016.317-.039.604-.026.325.013.519.073.643.176.102.087.157.218.148.414-.009.226-.174.378-.379.422l-.001.015c.164.037.264.192.283.473.026.295.059.41.087.471l-.415-.017c-.043-.069-.066-.236-.094-.494-.021-.205-.139-.292-.342-.3l-.181-.009zm.046-1.085l.188.008c.233.009.417-.058.425-.254.008-.158-.102-.283-.372-.294-.098-.005-.166-.008-.219-.002zm-4.115-2.658c-9.037 9.035-21.89 10.837-28.709 4.017-6.818-6.816-5.02-19.675 4.019-28.713 9.037-9.04 21.896-10.838 28.71-4.02 6.82 6.818 5.021 19.676-4.02 28.716" fill="#63B5E6"/><path d="M222.004 35.9628h-18.202a1.824 1.824 0 01-1.736-1.262c-.241-.751.021-1.574.658-2.043l5.589-4.069c1.162-.846 2.899-.056 2.899 1.475 0 .566-.258 1.119-.748 1.479 0 0-.73.532-1.056.767h10.109c-5.347-4.101-16.183-12.421-16.183-12.421-.405-.315-.715-.788-.715-1.517 0-.938.851-1.758 1.745-1.758h20.479c.981 0 1.791.836 1.791 1.823 0 .656-.339 1.13-.671 1.407l-5.362 4.463c-.776.647-1.925.54-2.574-.237-.284-.337-.421-.753-.421-1.162 0-.526.225-1.045.657-1.407 0 0 .892-.742 1.484-1.234h-9.926c4.842 3.716 14.368 10.974 16.095 12.301-.623.757-2.977 2.88-3.912 3.395m-17.558-24.626h20.362c1.009 0 1.826.816 1.826 1.829 0 1.007-.817 1.821-1.826 1.821h-20.362c-1.009 0-1.826-.814-1.826-1.821 0-1.013.817-1.829 1.826-1.829zm14.599-4.426l3.12-2.049c.851-.557 1.995-.321 2.552.533.559.847.322 1.99-.53 2.55l-3.122 2.044c-.85.561-1.992.322-2.551-.528-.563-.851-.324-1.992.531-2.55" fill="#FFF"/><path d="M73.828 26.1668h4.117c1.573.012 3.956.039 5.602 1.151 1.337.913 1.85 2.287 1.85 3.657 0 .843-.167 1.472-.329 1.885-1.192 3.024-4.798 3.076-6.151 3.093h-5.088m3.256-7.722v5.754h.993c1.717-.028 4.097-.099 4.097-2.912 0-.68-.091-1.358-.678-1.97-.882-.888-2.125-.872-3.112-.872zm10.134-2.059h6.371c3.374 0 4.7 1.47 4.7 3.126 0 1.969-1.774 2.503-2.651 2.753l2.982 3.908h-3.57l-2.562-3.489h-2.032v3.489h-3.238m3.238-7.959v2.65h2.671c.459-.017 1.942-.041 1.942-1.345 0-1.249-1.19-1.289-1.866-1.306h-2.747zm69.974-1.828h6.372c3.373 0 4.702 1.47 4.702 3.126 0 1.969-1.773 2.503-2.654 2.753l2.982 3.908h-3.569l-2.562-3.489h-2.032v3.489h-3.239m3.24-7.959v2.65h2.675c.454-.017 1.94-.041 1.94-1.345 0-1.249-1.192-1.289-1.867-1.306h-2.748zm-52.677-1.833v5.462c-.019.943-.038 1.886-.753 2.773-1.39 1.689-4.265 1.774-4.813 1.774-.971 0-2.124-.181-3.002-.53-2.486-.97-2.486-2.688-2.472-4.018v-5.462h3.26v6.099c0 .501.017.915.237 1.222.403.51 1.281.662 2.088.662 2.194 0 2.194-1.136 2.214-1.899v-6.083m14.606 8.872c-.527.375-1.624 1.138-3.799 1.138-3.604 0-5.82-2.22-5.82-5.104 0-3.144 2.693-5.243 6.368-5.243 3.418 0 5.08 1.67 5.685 2.265l-2.448 1.122c-.461-.526-1.21-1.388-2.999-1.388-2.452 0-3.386 1.539-3.386 3.176 0 1.111.402 2.01 1.028 2.496.494.402 1.37.706 2.357.706.58 0 1.239-.108 1.772-.374.842-.414.95-.943 1.039-1.458h-2.886v-1.854h5.617v5.434h-2.529m22.876-9.788v9.786h-3.094l.201-6.974.034-.984-.106.346c-.168.556-.185.626-.333 1.041l-2.435 6.571h-2.779l-2.342-6.294-.566-1.745c.055.776.055.94.107 1.869l.164 6.17h-3.09v-9.786h4.685l1.977 5.487.458 1.568c.18-.681.201-.748.344-1.209l2.071-5.847m13.973.002l4.761 9.785h-3.442l-.644-1.565h-4.756l-.642 1.565h-3.438l4.795-9.785m1.624 2.325c-.163.501-.347 1.014-.53 1.513-.272.733-.767 1.884-1.06 2.618h3.278zm19.157-2.326h11.067v1.941h-3.908v7.859h-3.243v-7.859h-3.916M24.231 4.5878h7.066v6.265h6.75v-6.265h7.132v17.212h-7.132v-6.629h-6.75v6.629h-7.066m47.284-8.774c0 4.361-3.327 9.335-12.104 9.335-9.161 0-11.917-5.217-11.917-9.143 0-4.925 3.96-9.267 12.04-9.267 8.846.001 11.981 4.978 11.981 9.075m-16.924.167c0 2.999 1.584 4.801 4.943 4.801 2.854 0 4.849-1.729 4.849-4.968 0-.832-.09-1.588-.408-2.271-1.08-2.391-3.803-2.461-4.44-2.461-2.534 0-4.944 1.342-4.944 4.899zm19.234-8.605h12.801c2.441.07 4.566.145 6.371 1.581 1.648 1.344 1.871 2.927 1.871 4.025 0 1.437-.38 2.999-2.126 4.39-1.868 1.485-3.931 1.562-6.369 1.607h-5.452v5.608h-7.096m7.096-13.605v4.389h4.061c.381-.025.789-.025 1.171-.121 1.077-.268 1.71-1.048 1.71-2.095 0-2.022-2.058-2.123-2.947-2.173zm15.924-3.606h12.803c2.443.07 4.566.145 6.369 1.581 1.652 1.344 1.873 2.927 1.873 4.025 0 1.437-.377 2.999-2.123 4.39-1.869 1.485-3.931 1.562-6.37 1.607h-5.452v5.608h-7.1m7.1-13.605v4.389h4.056c.38-.025.793-.025 1.175-.121 1.078-.268 1.711-1.048 1.711-2.095 0-2.022-2.061-2.123-2.948-2.173zm15.915-3.606h17.703v3.776h-10.607v2.563h9.908v3.73h-9.908v3.412h11.558v3.731H119.86m20.892-17.213h11.153c2.124 0 4.151.074 5.516.514 2.979.976 3.864 3.317 3.864 4.969 0 2.532-1.68 3.992-4.594 4.783l5.454 6.946h-7.862l-4.343-6.069h-2.091v6.069h-7.098m7.098-13.629v4.024h2.951c1.17 0 3.42-.051 3.42-2 0-1.974-2.223-2.024-3.456-2.024z" fill="#D62025"/><path d="M167.079 15.8488c1.32 1.929 4.357 2.269 6.396 2.269 1.201 0 3.209-.27 3.209-1.292 0-.538-.403-.92-1.391-1.081-.742-.118-4.576-.757-5.677-.94-3.907-.656-6.09-2.424-6.09-5.023 0-3.602 4.067-5.756 9.89-5.756 4.184 0 7.906 1.033 10.051 3.05l-4.439 2.854c-1.085-1.258-3.521-1.757-5.861-1.757-1.207 0-2.539.248-2.539 1.118 0 .832 1.151 1.006 3.078 1.32 4.959.821 9.922 1.34 9.922 5.607 0 3.501-3.721 6.098-10.558 6.098-4.622 0-8.54-.915-11.411-3.781M5.421 15.8488c1.32 1.929 4.353 2.269 6.394 2.269 1.201 0 3.208-.27 3.208-1.292 0-.538-.402-.92-1.386-1.081-.745-.118-4.577-.757-5.677-.94-3.909-.656-6.093-2.424-6.093-5.023 0-3.602 4.065-5.756 9.893-5.756 4.178 0 7.901 1.033 10.047 3.05l-4.438 2.852c-1.086-1.258-3.525-1.757-5.861-1.757-1.206 0-2.539.248-2.539 1.118 0 .832 1.151 1.006 3.078 1.32 4.961.821 9.918 1.34 9.918 5.607 0 3.501-3.717 6.098-10.555 6.098-4.621 0-8.537-.915-11.41-3.781" fill="#D62025"/></svg>