<svg width="1200" height="800" xmlns="http://www.w3.org/2000/svg" viewBox="-45.0003 -8.00025 390.0026 48.0015"><path d="M56.55.798L44.647 31.271h-5.479L28.277 5.022h-.005L17.381 31.271h-5.479L0 .798h5.071l9.656 26.551L26.075.798h4.407L41.83 27.349 51.486.798h5.064M68.137.78h4.461v30.491h-4.461zm23.741 0l20.618 21.809c1.473 1.557 1.776 1.9 3.25 3.716-.219-2.159-.219-2.548-.261-4.493V.78h4.16v30.491H115.4L93.741 8.425c-1.125-1.254-1.474-1.684-2.383-2.805.175 2.115.215 2.717.215 5.267v20.384h-4.157V.78h4.462m47.047 0l20.622 21.809c1.471 1.557 1.775 1.9 3.248 3.716-.221-2.159-.221-2.548-.264-4.493V.78h4.158v30.491h-4.242l-21.66-22.845c-1.126-1.254-1.476-1.684-2.382-2.805.173 2.115.219 2.717.219 5.267v20.383h-4.158V.78h4.459m42.608 0h28.24v3.76h-23.908v9.109h23.262v3.587h-23.262v10.278h24.992v3.757h-29.324V.78m43.055 0h20.797c2.684.045 5.93.086 8.57 2.462 1 .864 2.73 2.85 2.73 6.522 0 7.299-6.195 8.293-8.23 8.64l11.264 12.867h-5.676l-10.35-12.181H228.92v12.181h-4.332V.78m4.287 3.673v11.055h15.121c2.383 0 5.412-.046 7.146-2.334.779-.992 1.041-2.155 1.041-3.234 0-1.167-.309-2.333-.912-3.24-1.387-2.205-3.596-2.205-5.586-2.246h-16.81zm42.883 19.001c.48.563.953 1.077 2.121 1.857 3.338 2.287 7.406 2.979 11.438 2.979 6.715 0 10.4-2.462 10.4-6.177 0-4.232-4.813-4.62-10.877-5.139-7.666-.648-10.309-.864-12.65-2.978-1.861-1.729-2.166-3.674-2.166-5.096 0-8.68 11.527-8.9 14.344-8.9 4.285 0 8.617.693 12.17 3.07 1.514 1.034 2.207 1.854 3.076 3.066l-3.943 1.598c-.648-.651-1.043-1.081-1.779-1.598-2.727-1.944-6.105-2.547-9.441-2.547-2.469 0-5.545.341-7.363 1.247-2.123 1.04-2.73 2.595-2.73 3.847 0 .907.35 1.726.912 2.334 1.039 1.204 2.641 1.465 5.498 1.767 2.773.306 5.504.476 8.277.777 1.297.133 2.643.303 3.941.608 3.291.773 7.016 2.892 7.016 7.898 0 1.258-.215 3.197-1.559 5.101-2.384 3.364-7.107 4.833-13.429 4.833-2.512 0-5.721-.344-7.885-.906-6.279-1.556-8.49-4.749-9.355-6.001l3.984-1.64"/></svg>